<svg xmlns="http://www.w3.org/2000/svg" viewBox="0 0 72 72" style="enable-background:new 0 0 72 72" xml:space="preserve"><linearGradient id="a" gradientUnits="userSpaceOnUse" x1="36" y1="142" x2="36" y2="214" gradientTransform="translate(0 -142)"><stop offset="0" style="stop-color:#0a7aff"/><stop offset="1" style="stop-color:#59b9ff"/></linearGradient><path style="fill:url(#a)" d="M0 0h72v72H0z"/><path d="M25.804 22.24C29.93 25.35 34.37 31.652 36 35.035v8.933c0-.19-.073.025-.23.488-.851 2.506-4.173 12.289-11.77 4.468-4-4.117-2.148-8.235 5.133-9.478-4.165.711-8.848-.464-10.133-5.07-.37-1.326-1-9.489-1-10.591 0-5.523 4.826-3.787 7.804-1.545zm20.392 0C42.07 25.35 37.63 31.652 36 35.035v8.933c0-.19.073.025.23.488.851 2.506 4.173 12.289 11.77 4.468 4-4.117 2.148-8.235-5.133-9.478 4.165.711 8.848-.464 10.133-5.07.37-1.326 1-9.489 1-10.591 0-5.523-4.825-3.787-7.804-1.545z" style="fill:#fff"/></svg>