<?xml version="1.0" encoding="utf-8"?><!--Generator: Adobe Illustrator 28.3.0, SVG Export Plug-In . SVG Version: 6.00 Build 0)--><svg xmlns="http://www.w3.org/2000/svg" viewBox="0 0 72 72" style="enable-background:new 0 0 72 72" xml:space="preserve"><path style="fill:#58cc02" d="M0 0h72v72H0z"/><path d="M48.2 35.9c.6 5.4-2.7 10.5-7.8 12.2-5.2 1.6-10.8-.6-13.4-5.4-4.4.2-8.4-2.4-10-6.5-.2-.4-.1-.9.1-1.2.2-.4.6-.6 1.1-.6l5.9-.4-1.5-4.6c-.4-1.2-.1-2.6.7-3.6.8-1 2.1-1.5 3.3-1.4 3.2.3 5.3.3 6.4 0 1-.3 2.8-1.5 5.1-3.6 1-.8 2.3-1.1 3.5-.8 1.2.4 2.2 1.3 2.6 2.5l1.4 4.6 4.9-3c.4-.2.8-.3 1.2-.1.4.2.7.5.8.9 1.1 4.1-.7 8.6-4.3 11zm-15.1 15-2.7-1.3c-.9-.4-2 0-2.5.9-.4.9-.1 2.1.9 2.5l2.7 1.3c.9.4 2 0 2.5-.9.5-1 .1-2.1-.9-2.5zm18.8-8c-.4-.2-1-.3-1.4-.2-.5.1-.9.5-1.1.9l-1.5 2.6c-.5.9-.2 2 .7 2.5.9.5 2 .2 2.5-.7l1.5-2.6c.5-.8.2-2-.7-2.5z" style="fill-rule:evenodd;clip-rule:evenodd;fill:#fff"/></svg>