<svg xmlns="http://www.w3.org/2000/svg" viewBox="0 0 72 72"><path fill="#0070d1" d="M0 0h72v72H0z"/><path d="M17.458 42.44c-1.36.907-.907 2.63 1.996 3.447a19.524 19.524 0 009.433.726c.181 0 .363-.091.454-.091v-3.084l-3.084.998c-1.18.362-2.359.453-3.538.181-.907-.272-.726-.816.363-1.27l6.259-2.177v-3.356l-8.708 2.993a11.73 11.73 0 00-3.175 1.633zm21.044-13.606v8.799c3.719 1.814 6.621 0 6.621-4.717 0-4.807-1.723-6.984-6.712-8.708-2.63-.907-5.352-1.723-8.073-2.267v26.213l6.35 1.905V28.018c0-.998 0-1.723.725-1.451.998.272 1.089 1.27 1.089 2.267zm11.791 11.52c-2.63-.907-5.442-1.27-8.163-.998-1.451.09-2.812.454-4.082.907l-.272.09v3.538l5.896-2.177c1.18-.362 2.358-.453 3.537-.181.907.272.726.816-.362 1.27l-9.07 3.356v3.447l12.516-4.626c.907-.363 1.724-.817 2.45-1.542.634-.907.362-2.177-2.45-3.084z" fill="#fff"/></svg>