<svg version="1.1" id="Layer_1" xmlns="http://www.w3.org/2000/svg" x="0" y="0" viewBox="0 0 72 72" xml:space="preserve"><style>.st0{fill:#1ed760}</style><path d="M0 0h72v72H0z"/><path class="st0" d="M26.22 30.3h-2.54c-.97 0-1.75.79-1.75 1.76v16.26c0 .97.78 1.75 1.75 1.75h2.54c.97 0 1.76-.78 1.76-1.75V32.06c0-.97-.79-1.76-1.76-1.76zM37.27 21.93h-2.54c-.97 0-1.76.78-1.76 1.75v24.64c0 .97.79 1.75 1.76 1.75h2.54c.97 0 1.76-.78 1.76-1.75V23.68c0-.97-.79-1.75-1.76-1.75zM48.32 38h-2.54c-.97 0-1.76.8-1.76 1.76v8.56c0 .97.79 1.75 1.76 1.75h2.54c.97 0 1.75-.78 1.75-1.75v-8.56c0-.97-.78-1.75-1.75-1.75z"/></svg>