<svg version="1.1" id="Layer_1" xmlns="http://www.w3.org/2000/svg" x="0" y="0" viewBox="0 0 72 72" style="enable-background:new 0 0 72 72" xml:space="preserve"><style>.st1{fill:#fff}</style><path style="fill:#ff2741" d="M0 0h72v72H0z"/><path class="st1" d="M20.914 28.888h2.649c.025 3.923.015 7.848.017 11.77.014.803-.194 1.695-.876 2.196-.75.583-1.749.389-2.631.422-.35-.752-.688-1.51-1-2.28.466 0 .932.012 1.396-.015a.408.408 0 0 0 .414-.505c.02-3.865-.002-7.727.031-11.588zM31.81 28.713c.91-.014 1.82 0 2.72 0-.473 1.21-1.146 2.351-1.515 3.595.762.322 1.7.052 2.526.15-.678 1.585-1.436 3.137-2.075 4.742.583.118 1.197.076 1.797.076-.33.756-.668 1.506-1.004 2.257-1.03-.017-2.062.043-3.09-.027-.567 0-1.086-.583-.878-1.15.375-1.15.96-2.217 1.405-3.34-.641-.043-1.409.14-1.931-.334-.408-.406-.171-1 .021-1.45a304.573 304.573 0 0 0 2.025-4.519zM45.946 28.723h2.689v1.01c1.29-.05 2.792-.047 3.725.999 1 1.105.676 2.7.734 4.057.971.017 2.058.246 2.658 1.09.705.994.427 2.279.484 3.415-.037 1.083.231 2.39-.663 3.218-.94 1.016-2.448.705-3.682.777-.375-.76-.695-1.543-1.026-2.322.75-.021 1.5.03 2.248-.025a.44.44 0 0 0 .412-.464 21.5 21.5 0 0 0 0-2.153c.014-.507-.513-.83-.971-.79-1.31-.02-2.617 0-3.927 0v5.745h-2.691v-5.75h-2.69v-2.7c.895 0 1.79 0 2.684-.014.017-.777.017-1.56 0-2.347-.594-.01-1.189-.018-1.785-.012v-2.706h1.783l.018-1.028zm2.675 3.726c0 .79.006 1.58.018 2.37h1.814c0-.71.047-1.423-.027-2.137-.445-.47-1.222-.15-1.805-.233z"/><path class="st1" d="M36.344 29.737h6.163v2.707h-1.695v8.115c.865.01 1.732 0 2.596.01v2.7h-9.023c.406-.9.814-1.802 1.232-2.7.806 0 1.614 0 2.42-.01v-8.11H36.35c-.007-.906-.01-1.81-.005-2.712zM54.093 29.986c.68-.564 1.809-.195 2.063.635.325.762-.284 1.704-1.092 1.778-.503.044-1.008.02-1.511.017.033-.814-.214-1.865.54-2.43zM16.412 32.44c.888 0 1.774.013 2.66-.022-.054 1.518-.223 3.031-.318 4.547-.113 1.782-.517 3.616-1.605 5.071-.486-1.026-.94-2.065-1.395-3.109.14-.378.226-.775.256-1.177.123-1.759.26-3.538.402-5.31zM25.37 32.44h2.687c.136 1.766.276 3.532.404 5.298.027.409.113.811.256 1.195a147.47 147.47 0 0 1-1.393 3.109c-1.006-1.343-1.432-3.022-1.574-4.663-.141-1.642-.25-3.296-.38-4.94zM28.704 43.066c.41-.907.825-1.81 1.243-2.71 1.386.355 2.823.153 4.236.207-.404.906-.818 1.807-1.234 2.707-1.412-.076-2.87.202-4.245-.204z"/></svg>